<?xml version="1.0" encoding="utf-8"?>
<!-- Generator: Adobe Illustrator 19.2.1, SVG Export Plug-In . SVG Version: 6.00 Build 0)  -->
<svg version="1.1" id="Layer_1" xmlns="http://www.w3.org/2000/svg" xmlns:xlink="http://www.w3.org/1999/xlink" x="0px" y="0px"
	 viewBox="0 0 57.9 36.9" style="enable-background:new 0 0 57.9 36.9;" xml:space="preserve">
<style type="text/css">
	.st0{fill:#BFC6DC;}
</style>
<g>
	<path id="XMLID_27_" class="st0" d="M52.8,15.2c-0.4,0-0.8,0-1.2,0c0-0.1,0-0.2,0-0.2c0-0.3,0-0.6,0-0.8c0-1.5,0-3.1,0-4.6
		c0-0.3-0.3-0.7-0.4-0.7c-1.4-0.1-2.8,0-4.3,0c0,1.8,0,3.6,0,5.4c0,0.4,0,0.7,0,1.1c-2.2,0-4.2,0-6.5,0c0,0.5,0,0.8,0,1.1
		c0,1.2,0.1,2.3,0.2,3.5c1.1,0,2.3,0.1,3.4,0.1c1,0,1.9,0,3,0c0,2.2,0,4.3,0,6.3c1.6,0,3.1,0,4.7,0c0-2.1,0-4.2,0-6.4
		c2.2,0,4.3,0,6.4,0c0-1.2,0-2.4,0-3.6c0-0.4,0-0.8,0-1.2C56.2,15.2,54.5,15.2,52.8,15.2z"/>
	<path id="XMLID_26_" class="st0" d="M34.5,14.6c-4,0.1-8,0-12.1,0c-1.1,0-2.3,0-3.4,0c-0.2,0-0.6,0.3-0.6,0.4c0,2.3,0,4.6,0,7.1
		c3.3,0,6.5,0,9.8,0c-0.1,0.5-0.2,0.8-0.3,1.2c-1.5,4.5-6.1,6.7-11.1,5.9c-6.2-1-10-6.7-8.9-12.9c0.2-0.9,0.4-1.7,0.8-2.5
		c2-4.5,7.1-7.2,12-6.1c1.8,0.4,3.3,1.3,4.6,2.4c1.8-1.8,3.5-3.6,5.4-5.4c-0.1-0.1-0.3-0.2-0.5-0.3C26,0.7,21-0.6,15.4,0.3
		c-8,1.3-13.8,7.6-15.1,15c-0.6,3.2-0.3,6.5,1,9.8c3.1,7.8,11,12.6,19.4,11.7c4.1-0.5,7.8-1.9,10.7-5c4.2-4.5,5.3-10,4.7-15.9
		C35.8,14.8,35.4,14.6,34.5,14.6z"/>
</g>
</svg>
